<svg xmlns="http://www.w3.org/2000/svg" width="640" height="400" viewBox="0 0 640 400" role="img" aria-labelledby="title desc"><title id="title">蓝色墙面中有带把手的白色长方形门板，下方是地面。</title><desc id="desc">Original auxiliary schematic, not a textbook image. Trong tường xanh có tấm cửa trắng hình chữ nhật với tay nắm, bên dưới là sàn.</desc><rect x="0" y="0" width="640" height="400" rx="18" fill="#f5f0e2" stroke="none" stroke-width="3"/><rect x="18" y="18" width="58" height="29" rx="8" fill="#537f76" stroke="none" stroke-width="3"/><text x="47" y="40" text-anchor="middle" font-family="sans-serif" font-size="20" fill="#fff">5</text><rect x="18" y="60" width="604" height="321" rx="12" fill="#adc3d0" stroke="none" stroke-width="3"/><path d="M18 303 Q317 281 622 306 L622 371 Q622 382 608 382 L31 382 Q18 382 18 369 Z" fill="#d2cfbc" stroke="none" stroke-width="3" stroke-linecap="round" stroke-linejoin="round"/><rect x="219" y="71" width="203" height="269" rx="3" fill="#f9f6e8" stroke="#344849" stroke-width="3"/><rect x="236" y="91" width="168" height="249" rx="2" fill="#f0ece0" stroke="#344849" stroke-width="3"/><rect x="257" y="108" width="126" height="79" rx="2" fill="#ede8dc" stroke="#c4c4ba" stroke-width="3"/><rect x="257" y="206" width="126" height="95" rx="2" fill="#ede8dc" stroke="#c4c4ba" stroke-width="3"/><ellipse cx="388" cy="201" rx="6" ry="6" fill="#344849" stroke="none" stroke-width="3"/><path d="M362 201 L389 201" fill="none" stroke="#344849" stroke-width="5" stroke-linecap="round" stroke-linejoin="round"/></svg>
