<svg xmlns="http://www.w3.org/2000/svg" width="640" height="400" viewBox="0 0 640 400" role="img" aria-labelledby="title desc"><title id="title">母亲站在女儿身旁，女儿在书桌前书写；桌上有打开的本子和台灯。</title><desc id="desc">Original auxiliary schematic, not a textbook image. Mẹ đứng cạnh con gái đang viết ở bàn; trên bàn có vở mở và đèn.</desc><rect x="0" y="0" width="640" height="400" rx="18" fill="#f5f0e2" stroke="none" stroke-width="3"/><rect x="18" y="18" width="58" height="29" rx="8" fill="#537f76" stroke="none" stroke-width="3"/><text x="47" y="40" text-anchor="middle" font-family="sans-serif" font-size="20" fill="#fff">L10</text><rect x="18" y="60" width="604" height="321" rx="12" fill="#dde3d6" stroke="none" stroke-width="3"/><path d="M18 303 Q317 281 622 306 L622 371 Q622 382 608 382 L31 382 Q18 382 18 369 Z" fill="#d2cfbc" stroke="none" stroke-width="3" stroke-linecap="round" stroke-linejoin="round"/><rect x="433" y="70" width="131" height="155" rx="3" fill="#bfa888" stroke="#344849" stroke-width="3"/><g transform="translate(506 127) scale(0.7)"><rect x="-60" y="-50" width="24" height="81" rx="2" fill="#b89a80" stroke="#344849" stroke-width="3"/><rect x="-33" y="-60" width="23" height="91" rx="2" fill="#88a798" stroke="#344849" stroke-width="3"/><rect x="-7" y="-43" width="26" height="74" rx="2" fill="#b78993" stroke="#344849" stroke-width="3"/><rect x="22" y="-55" width="24" height="86" rx="2" fill="#8d9fae" stroke="#344849" stroke-width="3"/><path d="M-65 34 L60 34" fill="none" stroke="#344849" stroke-width="5" stroke-linecap="round" stroke-linejoin="round"/></g><g transform="translate(506 191) scale(0.7)"><rect x="-60" y="-50" width="24" height="81" rx="2" fill="#b89a80" stroke="#344849" stroke-width="3"/><rect x="-33" y="-60" width="23" height="91" rx="2" fill="#88a798" stroke="#344849" stroke-width="3"/><rect x="-7" y="-43" width="26" height="74" rx="2" fill="#b78993" stroke="#344849" stroke-width="3"/><rect x="22" y="-55" width="24" height="86" rx="2" fill="#8d9fae" stroke="#344849" stroke-width="3"/><path d="M-65 34 L60 34" fill="none" stroke="#344849" stroke-width="5" stroke-linecap="round" stroke-linejoin="round"/></g><g transform="translate(229 120) scale(1.13)"><ellipse cx="0" cy="12" rx="31" ry="45" fill="#344849" stroke="none" stroke-width="3"/><path d="M0 20 L0 39" fill="none" stroke="#dbb398" stroke-width="19" stroke-linecap="round" stroke-linejoin="round"/><path d="M-23 38 Q0 28 23 38 L31 101 L-31 101 Z" fill="#ba9b91" stroke="#344849" stroke-width="2" stroke-linecap="round" stroke-linejoin="round"/><path d="M-17 101 L-20 180" fill="none" stroke="#344849" stroke-width="16" stroke-linecap="round" stroke-linejoin="round"/><path d="M17 101 L20 180" fill="none" stroke="#344849" stroke-width="16" stroke-linecap="round" stroke-linejoin="round"/><path d="M-20 182 L-4 182" fill="none" stroke="#344849" stroke-width="11" stroke-linecap="round" stroke-linejoin="round"/><path d="M20 182 L38 182" fill="none" stroke="#344849" stroke-width="11" stroke-linecap="round" stroke-linejoin="round"/><ellipse cx="0" cy="-1" rx="27" ry="31" fill="#344849" stroke="none" stroke-width="3"/><ellipse cx="0" cy="6" rx="23" ry="27" fill="#dbb398" stroke="none" stroke-width="3"/><path d="M-24 -7 Q-19 -33 11 -27 Q27 -22 27 -3 Q12 -3 4 -16 Q-5 -3 -24 -7" fill="#344849" stroke="none" stroke-width="3" stroke-linecap="round" stroke-linejoin="round"/><ellipse cx="-9" cy="5" rx="2" ry="2" fill="#344849" stroke="none" stroke-width="3"/><ellipse cx="9" cy="5" rx="2" ry="2" fill="#344849" stroke="none" stroke-width="3"/><path d="M-7 18 Q0 23 7 18" fill="none" stroke="#344849" stroke-width="2" stroke-linecap="round" stroke-linejoin="round"/><path d="M1 9 L3 13 L0 14" fill="none" stroke="#b98971" stroke-width="1.5" stroke-linecap="round" stroke-linejoin="round"/><path d="M-25 46 L-29 77 L-29 111" fill="none" stroke="#ba9b91" stroke-width="15" stroke-linecap="round" stroke-linejoin="round"/><ellipse cx="-29" cy="111" rx="7" ry="9" fill="#dbb398" stroke="#344849" stroke-width="1"/><path d="M25 46 L59 92 L98 122" fill="none" stroke="#ba9b91" stroke-width="15" stroke-linecap="round" stroke-linejoin="round"/><ellipse cx="98" cy="122" rx="7" ry="9" fill="#dbb398" stroke="#344849" stroke-width="1"/></g><g transform="translate(372 204) scale(0.72)"><ellipse cx="0" cy="12" rx="31" ry="45" fill="#344849" stroke="none" stroke-width="3"/><path d="M0 20 L0 39" fill="none" stroke="#dbb398" stroke-width="19" stroke-linecap="round" stroke-linejoin="round"/><path d="M-23 38 Q0 28 23 38 L31 101 L-31 101 Z" fill="#95afa6" stroke="#344849" stroke-width="2" stroke-linecap="round" stroke-linejoin="round"/><path d="M-17 101 L-27 128 L-24 174 M17 101 L28 128 L25 174" fill="none" stroke="#344849" stroke-width="16" stroke-linecap="round" stroke-linejoin="round"/><path d="M-24 176 L-6 176" fill="none" stroke="#344849" stroke-width="11" stroke-linecap="round" stroke-linejoin="round"/><path d="M25 176 L42 176" fill="none" stroke="#344849" stroke-width="11" stroke-linecap="round" stroke-linejoin="round"/><ellipse cx="0" cy="-1" rx="27" ry="31" fill="#344849" stroke="none" stroke-width="3"/><ellipse cx="0" cy="6" rx="23" ry="27" fill="#dbb398" stroke="none" stroke-width="3"/><path d="M-24 -7 Q-19 -33 11 -27 Q27 -22 27 -3 Q12 -3 4 -16 Q-5 -3 -24 -7" fill="#344849" stroke="none" stroke-width="3" stroke-linecap="round" stroke-linejoin="round"/><ellipse cx="-9" cy="5" rx="2" ry="2" fill="#344849" stroke="none" stroke-width="3"/><ellipse cx="9" cy="5" rx="2" ry="2" fill="#344849" stroke="none" stroke-width="3"/><path d="M-7 18 Q0 23 7 18" fill="none" stroke="#344849" stroke-width="2" stroke-linecap="round" stroke-linejoin="round"/><path d="M1 9 L3 13 L0 14" fill="none" stroke="#b98971" stroke-width="1.5" stroke-linecap="round" stroke-linejoin="round"/><path d="M-25 46 L-28 67 L-52 111" fill="none" stroke="#95afa6" stroke-width="15" stroke-linecap="round" stroke-linejoin="round"/><ellipse cx="-52" cy="111" rx="7" ry="9" fill="#dbb398" stroke="#344849" stroke-width="1"/><path d="M25 46 L25 76 L-11 113" fill="none" stroke="#95afa6" stroke-width="15" stroke-linecap="round" stroke-linejoin="round"/><ellipse cx="-11" cy="113" rx="7" ry="9" fill="#dbb398" stroke="#344849" stroke-width="1"/></g><rect x="91" y="292" width="432" height="18" rx="4" fill="#b89974" stroke="#344849" stroke-width="3"/><path d="M115 310 L115 362" fill="none" stroke="#344849" stroke-width="7" stroke-linecap="round" stroke-linejoin="round"/><path d="M497 310 L497 362" fill="none" stroke="#344849" stroke-width="7" stroke-linecap="round" stroke-linejoin="round"/><path d="M299 264 Q334 253 362 267 Q395 254 430 268 L431 291 L298 291 Z" fill="#fff7df" stroke="#344849" stroke-width="2" stroke-linecap="round" stroke-linejoin="round"/><path d="M362 267 L362 291" fill="none" stroke="#344849" stroke-width="2" stroke-linecap="round" stroke-linejoin="round"/><path d="M354 245 L345 263 L335 280 M390 250 L390 267 L369 279" fill="none" stroke="#95afa6" stroke-width="10" stroke-linecap="round" stroke-linejoin="round"/><ellipse cx="335" cy="280" rx="5" ry="6" fill="#dbb398" stroke="#344849" stroke-width="1"/><ellipse cx="369" cy="279" rx="5" ry="6" fill="#dbb398" stroke="#344849" stroke-width="1"/><path d="M370 273 L360 288" fill="none" stroke="#344849" stroke-width="3" stroke-linecap="round" stroke-linejoin="round"/><path d="M161 291 L161 176" fill="none" stroke="#344849" stroke-width="5" stroke-linecap="round" stroke-linejoin="round"/><ellipse cx="161" cy="291" rx="31" ry="5" fill="#344849" stroke="none" stroke-width="3"/><path d="M121 182 L199 182 L182 132 L138 132 Z" fill="#ddcba0" stroke="#344849" stroke-width="3" stroke-linecap="round" stroke-linejoin="round"/></svg>
