<svg xmlns="http://www.w3.org/2000/svg" width="640" height="400" viewBox="0 0 640 400" role="img" aria-labelledby="title desc"><title id="title">一本绿白方格封面的本子，上面有熊猫装饰和绿色搭扣。</title><desc id="desc">Original auxiliary schematic, not a textbook image. Một quyển vở bìa caro xanh trắng, có hình gấu trúc và tab cài màu xanh.</desc><rect x="0" y="0" width="640" height="400" rx="18" fill="#f5f0e2" stroke="none" stroke-width="3"/><rect x="18" y="18" width="58" height="29" rx="8" fill="#537f76" stroke="none" stroke-width="3"/><text x="47" y="40" text-anchor="middle" font-family="sans-serif" font-size="20" fill="#fff">L13</text><rect x="18" y="60" width="604" height="321" rx="12" fill="#cbb797" stroke="none" stroke-width="3"/><path d="M18 303 Q317 281 622 306 L622 371 Q622 382 608 382 L31 382 Q18 382 18 369 Z" fill="#d2cfbc" stroke="none" stroke-width="3" stroke-linecap="round" stroke-linejoin="round"/><rect x="212" y="97" width="227" height="258" rx="9" fill="#e4e5ce" stroke="#344849" stroke-width="4"/><rect x="220" y="105" width="30" height="30" rx="0" fill="#78967a" stroke="none" stroke-width="3"/><rect x="280" y="105" width="30" height="30" rx="0" fill="#78967a" stroke="none" stroke-width="3"/><rect x="340" y="105" width="30" height="30" rx="0" fill="#78967a" stroke="none" stroke-width="3"/><rect x="400" y="105" width="30" height="30" rx="0" fill="#78967a" stroke="none" stroke-width="3"/><rect x="250" y="135" width="30" height="30" rx="0" fill="#78967a" stroke="none" stroke-width="3"/><rect x="310" y="135" width="30" height="30" rx="0" fill="#78967a" stroke="none" stroke-width="3"/><rect x="370" y="135" width="30" height="30" rx="0" fill="#78967a" stroke="none" stroke-width="3"/><rect x="220" y="165" width="30" height="30" rx="0" fill="#78967a" stroke="none" stroke-width="3"/><rect x="280" y="165" width="30" height="30" rx="0" fill="#78967a" stroke="none" stroke-width="3"/><rect x="340" y="165" width="30" height="30" rx="0" fill="#78967a" stroke="none" stroke-width="3"/><rect x="400" y="165" width="30" height="30" rx="0" fill="#78967a" stroke="none" stroke-width="3"/><rect x="250" y="195" width="30" height="30" rx="0" fill="#78967a" stroke="none" stroke-width="3"/><rect x="310" y="195" width="30" height="30" rx="0" fill="#78967a" stroke="none" stroke-width="3"/><rect x="370" y="195" width="30" height="30" rx="0" fill="#78967a" stroke="none" stroke-width="3"/><rect x="220" y="225" width="30" height="30" rx="0" fill="#78967a" stroke="none" stroke-width="3"/><rect x="280" y="225" width="30" height="30" rx="0" fill="#78967a" stroke="none" stroke-width="3"/><rect x="340" y="225" width="30" height="30" rx="0" fill="#78967a" stroke="none" stroke-width="3"/><rect x="400" y="225" width="30" height="30" rx="0" fill="#78967a" stroke="none" stroke-width="3"/><rect x="250" y="255" width="30" height="30" rx="0" fill="#78967a" stroke="none" stroke-width="3"/><rect x="310" y="255" width="30" height="30" rx="0" fill="#78967a" stroke="none" stroke-width="3"/><rect x="370" y="255" width="30" height="30" rx="0" fill="#78967a" stroke="none" stroke-width="3"/><rect x="220" y="285" width="30" height="30" rx="0" fill="#78967a" stroke="none" stroke-width="3"/><rect x="280" y="285" width="30" height="30" rx="0" fill="#78967a" stroke="none" stroke-width="3"/><rect x="340" y="285" width="30" height="30" rx="0" fill="#78967a" stroke="none" stroke-width="3"/><rect x="400" y="285" width="30" height="30" rx="0" fill="#78967a" stroke="none" stroke-width="3"/><rect x="250" y="315" width="30" height="30" rx="0" fill="#78967a" stroke="none" stroke-width="3"/><rect x="310" y="315" width="30" height="30" rx="0" fill="#78967a" stroke="none" stroke-width="3"/><rect x="370" y="315" width="30" height="30" rx="0" fill="#78967a" stroke="none" stroke-width="3"/><rect x="212" y="97" width="18" height="258" rx="5" fill="#607e64" stroke="#344849" stroke-width="2"/><rect x="401" y="215" width="64" height="36" rx="5" fill="#5e826d" stroke="#344849" stroke-width="3"/><ellipse cx="432" cy="232" rx="5" ry="5" fill="#a9b897" stroke="none" stroke-width="3"/><ellipse cx="327" cy="243" rx="44" ry="60" fill="#344849" stroke="none" stroke-width="3"/><ellipse cx="327" cy="245" rx="31" ry="49" fill="#e8e8dc" stroke="none" stroke-width="3"/><ellipse cx="297" cy="281" rx="19" ry="28" fill="#344849" stroke="none" stroke-width="3"/><ellipse cx="356" cy="281" rx="19" ry="28" fill="#344849" stroke="none" stroke-width="3"/><ellipse cx="294" cy="187" rx="16" ry="17" fill="#344849" stroke="none" stroke-width="3"/><ellipse cx="359" cy="187" rx="16" ry="17" fill="#344849" stroke="none" stroke-width="3"/><ellipse cx="327" cy="206" rx="46" ry="40" fill="#edede4" stroke="#344849" stroke-width="2"/><ellipse cx="309" cy="206" rx="12" ry="17" fill="#344849" stroke="none" stroke-width="3"/><ellipse cx="345" cy="206" rx="12" ry="17" fill="#344849" stroke="none" stroke-width="3"/><ellipse cx="310" cy="204" rx="3" ry="4" fill="#f5f3e5" stroke="none" stroke-width="3"/><ellipse cx="343" cy="204" rx="3" ry="4" fill="#f5f3e5" stroke="none" stroke-width="3"/><ellipse cx="327" cy="219" rx="7" ry="5" fill="#344849" stroke="none" stroke-width="3"/><path d="M319 229 Q327 234 335 229" fill="none" stroke="#344849" stroke-width="2" stroke-linecap="round" stroke-linejoin="round"/></svg>
