<svg xmlns="http://www.w3.org/2000/svg" width="640" height="400" viewBox="0 0 640 400" role="img" aria-labelledby="title desc"><title id="title">商店横杆上挂着红色、绿色和黑色书包。</title><desc id="desc">Original auxiliary schematic, not a textbook image. Trên thanh treo của cửa hàng có cặp đỏ, xanh lá và đen.</desc><rect x="0" y="0" width="640" height="400" rx="18" fill="#fbf6e9" stroke="none" stroke-width="3"/><rect x="18" y="18" width="48" height="29" rx="8" fill="#2a7375" stroke="none" stroke-width="3"/><text x="42" y="40" fill="#fff" font-family="DejaVu Sans,sans-serif" font-size="20" text-anchor="middle">L4</text><rect x="18" y="305" width="604" height="76" rx="0" fill="#e5dac8" stroke="none" stroke-width="3"/><path d="M18 305 L622 305" fill="none" stroke="#c9bda9" stroke-width="2" stroke-linejoin="round" stroke-linecap="round"/><path d="M89 100 L551 100" fill="none" stroke="#263f4e" stroke-width="6" stroke-linejoin="round" stroke-linecap="round"/><path d="M174 112 L174 100 Q174 90 182 94 M320 112 L320 100 Q320 90 328 94 M466 112 L466 100 Q466 90 474 94" fill="none" stroke="#263f4e" stroke-width="3" stroke-linejoin="round" stroke-linecap="round"/><g transform="translate(174 163) scale(0.63) rotate(0)"><path d="M-34 -55 L-34 -75 Q0 -97 34 -75 L34 -55" fill="none" stroke="#263f4e" stroke-width="8" stroke-linejoin="round" stroke-linecap="round"/><rect x="-72" y="-55" width="144" height="193" rx="17" fill="#ba675b" stroke="#263f4e" stroke-width="3"/><rect x="-53" y="31" width="106" height="81" rx="10" fill="#ba675b" stroke="#263f4e" stroke-width="3"/><path d="M-45 48 L47 48" fill="none" stroke="#263f4e" stroke-width="3" stroke-linejoin="round" stroke-linecap="round"/><path d="M-74 -25 Q-120 3 -90 110 M74 -25 Q120 3 90 110" fill="none" stroke="#263f4e" stroke-width="9" stroke-linejoin="round" stroke-linecap="round"/></g><g transform="translate(320 163) scale(0.63) rotate(0)"><path d="M-34 -55 L-34 -75 Q0 -97 34 -75 L34 -55" fill="none" stroke="#263f4e" stroke-width="8" stroke-linejoin="round" stroke-linecap="round"/><rect x="-72" y="-55" width="144" height="193" rx="17" fill="#649272" stroke="#263f4e" stroke-width="3"/><rect x="-53" y="31" width="106" height="81" rx="10" fill="#649272" stroke="#263f4e" stroke-width="3"/><path d="M-45 48 L47 48" fill="none" stroke="#263f4e" stroke-width="3" stroke-linejoin="round" stroke-linecap="round"/><path d="M-74 -25 Q-120 3 -90 110 M74 -25 Q120 3 90 110" fill="none" stroke="#263f4e" stroke-width="9" stroke-linejoin="round" stroke-linecap="round"/></g><g transform="translate(466 163) scale(0.63) rotate(0)"><path d="M-34 -55 L-34 -75 Q0 -97 34 -75 L34 -55" fill="none" stroke="#263f4e" stroke-width="8" stroke-linejoin="round" stroke-linecap="round"/><rect x="-72" y="-55" width="144" height="193" rx="17" fill="#364650" stroke="#263f4e" stroke-width="3"/><rect x="-53" y="31" width="106" height="81" rx="10" fill="#364650" stroke="#263f4e" stroke-width="3"/><path d="M-45 48 L47 48" fill="none" stroke="#263f4e" stroke-width="3" stroke-linejoin="round" stroke-linecap="round"/><path d="M-74 -25 Q-120 3 -90 110 M74 -25 Q120 3 90 110" fill="none" stroke="#263f4e" stroke-width="9" stroke-linejoin="round" stroke-linecap="round"/></g></svg>
