<svg xmlns="http://www.w3.org/2000/svg" width="640" height="400" viewBox="0 0 640 400" role="img"><title>大风把几棵棕榈树的树干和叶子吹向一侧。</title><desc>Gió mạnh làm thân và lá của vài cây cọ nghiêng về một phía.</desc><rect width="640" height="400" rx="18" fill="#abbac1"/><rect x="0" y="300" width="640" height="100" rx="0" fill="#839690" stroke="none" stroke-width="4"/><g transform="translate(95 68) scale(1.3)"><circle cx="-35" cy="0" r="27" fill="#7d8e98" stroke="none" stroke-width="3"/><circle cx="0" cy="-12" r="38" fill="#7d8e98" stroke="none" stroke-width="3"/><circle cx="37" cy="0" r="27" fill="#7d8e98" stroke="none" stroke-width="3"/><rect x="-40" y="0" width="83" height="25" rx="12" fill="#7d8e98" stroke="none" stroke-width="4"/></g><g transform="translate(310 75) scale(1.6)"><circle cx="-35" cy="0" r="27" fill="#83959f" stroke="none" stroke-width="3"/><circle cx="0" cy="-12" r="38" fill="#83959f" stroke="none" stroke-width="3"/><circle cx="37" cy="0" r="27" fill="#83959f" stroke="none" stroke-width="3"/><rect x="-40" y="0" width="83" height="25" rx="12" fill="#83959f" stroke="none" stroke-width="4"/></g><g transform="translate(565 67) scale(1.3)"><circle cx="-35" cy="0" r="27" fill="#738891" stroke="none" stroke-width="3"/><circle cx="0" cy="-12" r="38" fill="#738891" stroke="none" stroke-width="3"/><circle cx="37" cy="0" r="27" fill="#738891" stroke="none" stroke-width="3"/><rect x="-40" y="0" width="83" height="25" rx="12" fill="#738891" stroke="none" stroke-width="4"/></g><g transform="translate(180 340) scale(1.15)"><path d="M0 0Q-30 -132 -72 -194" fill="none" stroke="#806c55" stroke-width="14" stroke-linecap="round" stroke-linejoin="round"/><path d="M-72 -194Q-172 -226 -192 -183Q-125 -199 -72 -194" fill="#3b6b59" stroke="#3b6b59" stroke-width="3" stroke-linecap="round" stroke-linejoin="round"/><path d="M-72 -194Q-109 -251 -183 -237Q-110 -211 -72 -194" fill="#3b6b59" stroke="#3b6b59" stroke-width="3" stroke-linecap="round" stroke-linejoin="round"/><path d="M-72 -194Q-18 -217 19 -178Q-33 -189 -72 -194" fill="#3b6b59" stroke="#3b6b59" stroke-width="3" stroke-linecap="round" stroke-linejoin="round"/><path d="M-72 -194Q-153 -180 -165 -127Q-113 -165 -72 -194" fill="#3b6b59" stroke="#3b6b59" stroke-width="3" stroke-linecap="round" stroke-linejoin="round"/></g><g transform="translate(368 322) scale(0.95)"><path d="M0 0Q-30 -132 -72 -194" fill="none" stroke="#806c55" stroke-width="14" stroke-linecap="round" stroke-linejoin="round"/><path d="M-72 -194Q-172 -226 -192 -183Q-125 -199 -72 -194" fill="#3b6b59" stroke="#3b6b59" stroke-width="3" stroke-linecap="round" stroke-linejoin="round"/><path d="M-72 -194Q-109 -251 -183 -237Q-110 -211 -72 -194" fill="#3b6b59" stroke="#3b6b59" stroke-width="3" stroke-linecap="round" stroke-linejoin="round"/><path d="M-72 -194Q-18 -217 19 -178Q-33 -189 -72 -194" fill="#3b6b59" stroke="#3b6b59" stroke-width="3" stroke-linecap="round" stroke-linejoin="round"/><path d="M-72 -194Q-153 -180 -165 -127Q-113 -165 -72 -194" fill="#3b6b59" stroke="#3b6b59" stroke-width="3" stroke-linecap="round" stroke-linejoin="round"/></g><g transform="translate(530 330) scale(0.7)"><path d="M0 0Q-30 -132 -72 -194" fill="none" stroke="#806c55" stroke-width="14" stroke-linecap="round" stroke-linejoin="round"/><path d="M-72 -194Q-172 -226 -192 -183Q-125 -199 -72 -194" fill="#3b6b59" stroke="#3b6b59" stroke-width="3" stroke-linecap="round" stroke-linejoin="round"/><path d="M-72 -194Q-109 -251 -183 -237Q-110 -211 -72 -194" fill="#3b6b59" stroke="#3b6b59" stroke-width="3" stroke-linecap="round" stroke-linejoin="round"/><path d="M-72 -194Q-18 -217 19 -178Q-33 -189 -72 -194" fill="#3b6b59" stroke="#3b6b59" stroke-width="3" stroke-linecap="round" stroke-linejoin="round"/><path d="M-72 -194Q-153 -180 -165 -127Q-113 -165 -72 -194" fill="#3b6b59" stroke="#3b6b59" stroke-width="3" stroke-linecap="round" stroke-linejoin="round"/></g><path d="M25 118Q130 93 250 122M266 160Q400 128 600 156" fill="none" stroke="#bacbd0" stroke-width="4" stroke-linecap="round" stroke-linejoin="round"/></svg>
