<svg xmlns="http://www.w3.org/2000/svg" width="640" height="400" viewBox="0 0 640 400" role="img" aria-labelledby="title desc"><title id="title">两名背着背包的登山者沿山路往上走。</title><desc id="desc">Original auxiliary schematic, not a textbook image. Hai người đeo ba lô đi lên theo đường núi.</desc><rect x="0" y="0" width="640" height="400" rx="18" fill="#f5f0e2" stroke="none" stroke-width="3"/><rect x="18" y="18" width="58" height="29" rx="8" fill="#537f76" stroke="none" stroke-width="3"/><text x="47" y="40" text-anchor="middle" font-family="sans-serif" font-size="20" fill="#fff">1</text><rect x="18" y="60" width="604" height="321" rx="12" fill="#b5ced2" stroke="none" stroke-width="3"/><path d="M18 303 L164 165 L255 237 L393 90 L622 320 L622 381 L18 381 Z" fill="#839693" stroke="#344849" stroke-width="2" stroke-linecap="round" stroke-linejoin="round"/><path d="M127 381 L236 244 L288 231 L223 342 L386 279 L486 381 Z" fill="#c2b49a" stroke="none" stroke-width="3" stroke-linecap="round" stroke-linejoin="round"/><g transform="translate(393 153) scale(1.04)"><path d="M0 20 L0 39" fill="none" stroke="#dbb398" stroke-width="19" stroke-linecap="round" stroke-linejoin="round"/><path d="M-23 38 Q0 28 23 38 L31 101 L-31 101 Z" fill="#a37b70" stroke="#344849" stroke-width="2" stroke-linecap="round" stroke-linejoin="round"/><path d="M-17 101 L-20 180" fill="none" stroke="#344849" stroke-width="16" stroke-linecap="round" stroke-linejoin="round"/><path d="M17 101 L20 180" fill="none" stroke="#344849" stroke-width="16" stroke-linecap="round" stroke-linejoin="round"/><path d="M-20 182 L-4 182" fill="none" stroke="#344849" stroke-width="11" stroke-linecap="round" stroke-linejoin="round"/><path d="M20 182 L38 182" fill="none" stroke="#344849" stroke-width="11" stroke-linecap="round" stroke-linejoin="round"/><ellipse cx="0" cy="-1" rx="27" ry="31" fill="#344849" stroke="none" stroke-width="3"/><ellipse cx="0" cy="6" rx="23" ry="27" fill="#dbb398" stroke="none" stroke-width="3"/><path d="M-24 -7 Q-19 -33 11 -27 Q27 -22 27 -3 Q12 -3 4 -16 Q-5 -3 -24 -7" fill="#344849" stroke="none" stroke-width="3" stroke-linecap="round" stroke-linejoin="round"/><ellipse cx="0" cy="2" rx="25" ry="29" fill="#344849" stroke="none" stroke-width="3"/><path d="M-25 46 L-42 67 L-63 111" fill="none" stroke="#a37b70" stroke-width="15" stroke-linecap="round" stroke-linejoin="round"/><ellipse cx="-63" cy="111" rx="7" ry="9" fill="#dbb398" stroke="#344849" stroke-width="1"/><path d="M25 46 L51 65 L66 96" fill="none" stroke="#a37b70" stroke-width="15" stroke-linecap="round" stroke-linejoin="round"/><ellipse cx="66" cy="96" rx="7" ry="9" fill="#dbb398" stroke="#344849" stroke-width="1"/></g><g transform="translate(255 227) scale(0.65)"><path d="M0 20 L0 39" fill="none" stroke="#dbb398" stroke-width="19" stroke-linecap="round" stroke-linejoin="round"/><path d="M-23 38 Q0 28 23 38 L31 101 L-31 101 Z" fill="#b77f6f" stroke="#344849" stroke-width="2" stroke-linecap="round" stroke-linejoin="round"/><path d="M-17 101 L-20 180" fill="none" stroke="#344849" stroke-width="16" stroke-linecap="round" stroke-linejoin="round"/><path d="M17 101 L20 180" fill="none" stroke="#344849" stroke-width="16" stroke-linecap="round" stroke-linejoin="round"/><path d="M-20 182 L-4 182" fill="none" stroke="#344849" stroke-width="11" stroke-linecap="round" stroke-linejoin="round"/><path d="M20 182 L38 182" fill="none" stroke="#344849" stroke-width="11" stroke-linecap="round" stroke-linejoin="round"/><ellipse cx="0" cy="-1" rx="27" ry="31" fill="#344849" stroke="none" stroke-width="3"/><ellipse cx="0" cy="6" rx="23" ry="27" fill="#dbb398" stroke="none" stroke-width="3"/><path d="M-24 -7 Q-19 -33 11 -27 Q27 -22 27 -3 Q12 -3 4 -16 Q-5 -3 -24 -7" fill="#344849" stroke="none" stroke-width="3" stroke-linecap="round" stroke-linejoin="round"/><ellipse cx="0" cy="2" rx="25" ry="29" fill="#344849" stroke="none" stroke-width="3"/><path d="M-25 46 L-42 74 L-37 113" fill="none" stroke="#b77f6f" stroke-width="15" stroke-linecap="round" stroke-linejoin="round"/><ellipse cx="-37" cy="113" rx="7" ry="9" fill="#dbb398" stroke="#344849" stroke-width="1"/><path d="M25 46 L42 74 L37 113" fill="none" stroke="#b77f6f" stroke-width="15" stroke-linecap="round" stroke-linejoin="round"/><ellipse cx="37" cy="113" rx="7" ry="9" fill="#dbb398" stroke="#344849" stroke-width="1"/></g><rect x="366" y="186" width="59" height="81" rx="13" fill="#685f56" stroke="#344849" stroke-width="3"/><rect x="372" y="208" width="48" height="45" rx="9" fill="#958269" stroke="#344849" stroke-width="3"/><path d="M458 248 L482 361" fill="none" stroke="#344849" stroke-width="4" stroke-linecap="round" stroke-linejoin="round"/><rect x="238" y="249" width="34" height="45" rx="8" fill="#8e745d" stroke="#344849" stroke-width="3"/></svg>
