<svg xmlns="http://www.w3.org/2000/svg" width="640" height="400" viewBox="0 0 640 400" role="img"><title>两只熊猫的身体部位标号：1连接左侧抬起的脚，2连接右侧耳朵，3连接脸部，4连接嘴，5连接左侧眼睛。</title><desc>Các vị trí trên hai gấu trúc: 1 nối với chân giơ lên bên trái; 2 với tai bên phải; 3 với mặt; 4 với miệng; 5 với mắt bên trái.</desc><rect width="640" height="400" rx="18" fill="#f5f0e3"/><rect x="0" y="335" width="640" height="65" rx="0" fill="#cbd4b4"/><ellipse cx="254" cy="263" rx="106" ry="61" fill="#f7f3e7" stroke="#bdc6bc" stroke-width="3"/><path d="M266 225Q227 184 180 129" fill="none" stroke="#35464a" stroke-width="37" stroke-linecap="round" stroke-linejoin="round"/><ellipse cx="177" cy="121" rx="29" ry="22" fill="#35464a"/><ellipse cx="177" cy="113" rx="15" ry="10" fill="#758083"/><ellipse cx="263" cy="311" rx="65" ry="21" fill="#35464a"/><ellipse cx="316" cy="288" rx="24" ry="45" fill="#35464a"/><g transform="translate(174 274) scale(1.03)"><circle cx="-36" cy="-31" r="22" fill="#35464a"/><circle cx="36" cy="-31" r="22" fill="#35464a"/><ellipse cx="0" cy="0" rx="56" ry="47" fill="#fcf9ed"/><ellipse cx="-21" cy="0" rx="14" ry="19" fill="#35464a"/><ellipse cx="21" cy="0" rx="14" ry="19" fill="#35464a"/><circle cx="-19" cy="-4" r="4" fill="#fdfbf0"/><circle cx="19" cy="-4" r="4" fill="#fdfbf0"/><ellipse cx="0" cy="20" rx="11" ry="7" fill="#35464a"/><path d="M0 26L0 31M0 31Q-10 40 -17 31M0 31Q10 40 17 31" fill="none" stroke="#35464a" stroke-width="3" stroke-linecap="round" stroke-linejoin="round"/></g><g transform="translate(449 192) scale(1.1)"><ellipse cx="0" cy="59" rx="56" ry="65" fill="#f5f3e7" stroke="#bdc6bc" stroke-width="3"/><ellipse cx="-41" cy="60" rx="21" ry="45" fill="#35464a"/><ellipse cx="41" cy="60" rx="21" ry="45" fill="#35464a"/><ellipse cx="-36" cy="112" rx="29" ry="18" fill="#35464a"/><ellipse cx="36" cy="112" rx="29" ry="18" fill="#35464a"/><circle cx="-36" cy="-31" r="22" fill="#35464a"/><circle cx="36" cy="-31" r="22" fill="#35464a"/><ellipse cx="0" cy="0" rx="56" ry="47" fill="#fcf9ed"/><ellipse cx="-21" cy="0" rx="14" ry="19" fill="#35464a"/><ellipse cx="21" cy="0" rx="14" ry="19" fill="#35464a"/><circle cx="-19" cy="-4" r="4" fill="#fdfbf0"/><circle cx="19" cy="-4" r="4" fill="#fdfbf0"/><ellipse cx="0" cy="20" rx="11" ry="7" fill="#35464a"/><path d="M0 26L0 31M0 31Q-10 40 -17 31M0 31Q10 40 17 31" fill="none" stroke="#35464a" stroke-width="3" stroke-linecap="round" stroke-linejoin="round"/><path d="M-58 92L56 33" fill="none" stroke="#73935f" stroke-width="8" stroke-linecap="round" stroke-linejoin="round"/><path d="M-18 72L-24 46L4 58M8 58L30 66L26 42" fill="none" stroke="#73935f" stroke-width="5" stroke-linecap="round" stroke-linejoin="round"/></g><path d="M62 66L177 113" fill="none" stroke="#b47741" stroke-width="3" stroke-linecap="round" stroke-linejoin="round"/><circle cx="177" cy="113" r="5" fill="#b47741"/><circle cx="62" cy="66" r="19" fill="#fff9e6"/><text x="62" y="73" font-family="DejaVu Sans,sans-serif" font-size="21" font-weight="600" text-anchor="middle" fill="#344e58">1</text><path d="M553 63L498 146" fill="none" stroke="#b47741" stroke-width="3" stroke-linecap="round" stroke-linejoin="round"/><circle cx="498" cy="146" r="5" fill="#b47741"/><circle cx="553" cy="63" r="19" fill="#fff9e6"/><text x="553" y="70" font-family="DejaVu Sans,sans-serif" font-size="21" font-weight="600" text-anchor="middle" fill="#344e58">2</text><path d="M584 202L505 212" fill="none" stroke="#b47741" stroke-width="3" stroke-linecap="round" stroke-linejoin="round"/><circle cx="505" cy="212" r="5" fill="#b47741"/><circle cx="584" cy="202" r="19" fill="#fff9e6"/><text x="584" y="209" font-family="DejaVu Sans,sans-serif" font-size="21" font-weight="600" text-anchor="middle" fill="#344e58">3</text><path d="M489 355L449 226" fill="none" stroke="#b47741" stroke-width="3" stroke-linecap="round" stroke-linejoin="round"/><circle cx="449" cy="226" r="5" fill="#b47741"/><circle cx="489" cy="355" r="19" fill="#fff9e6"/><text x="489" y="362" font-family="DejaVu Sans,sans-serif" font-size="21" font-weight="600" text-anchor="middle" fill="#344e58">4</text><path d="M55 322L153 270" fill="none" stroke="#b47741" stroke-width="3" stroke-linecap="round" stroke-linejoin="round"/><circle cx="153" cy="270" r="5" fill="#b47741"/><circle cx="55" cy="322" r="19" fill="#fff9e6"/><text x="55" y="329" font-family="DejaVu Sans,sans-serif" font-size="21" font-weight="600" text-anchor="middle" fill="#344e58">5</text></svg>
