<svg xmlns="http://www.w3.org/2000/svg" width="640" height="400" viewBox="0 0 640 400" role="img" aria-labelledby="title"><title id="title">自制辅助示意图（非教材原图）：两位成年人坐在沙发上看手机里的合影。</title><rect width="640" height="400" rx="24" fill="#fff9ec"/><ellipse cx="320" cy="328" rx="266" ry="25" fill="#deeee5"/><rect x="101" y="188" width="445" height="128" rx="20" fill="#8fb8a1" stroke="none" stroke-width="4"/><rect x="90" y="230" width="37" height="89" rx="10" fill="#327657" stroke="none" stroke-width="4"/><rect x="521" y="230" width="37" height="89" rx="10" fill="#327657" stroke="none" stroke-width="4"/><g transform="translate(236 113) scale(0.98) rotate(0)"><circle cx="0" cy="0" r="22" fill="#d9a27e" stroke="none" stroke-width="4"/><path d="M-23 -3 Q-25 -36 5 -27 Q28 -22 23 0 Q9 -10 -1 -17 Q-10 -6 -23 -3" fill="#4c3930" stroke="none" stroke-width="4" stroke-linecap="round" stroke-linejoin="round"/><circle cx="-7" cy="0" r="2.3" fill="#173c31" stroke="none" stroke-width="4"/><circle cx="7" cy="0" r="2.3" fill="#173c31" stroke="none" stroke-width="4"/><path d="M-6 10 Q0 14 6 10" fill="none" stroke="#173c31" stroke-width="2" stroke-linecap="round" stroke-linejoin="round"/><path d="M-24 30 Q0 22 24 30 L31 103 Q0 112 -31 103 Z" fill="#6c9fc0" stroke="none" stroke-width="4" stroke-linecap="round" stroke-linejoin="round"/><path d="M-14 105L-19 168" fill="none" stroke="#314d63" stroke-width="15" stroke-linecap="round" stroke-linejoin="round"/><path d="M14 105L23 168" fill="none" stroke="#314d63" stroke-width="15" stroke-linecap="round" stroke-linejoin="round"/><path d="M-24 170L-9 170" fill="none" stroke="#173c31" stroke-width="11" stroke-linecap="round" stroke-linejoin="round"/><path d="M18 170L35 170" fill="none" stroke="#173c31" stroke-width="11" stroke-linecap="round" stroke-linejoin="round"/><path d="M-25 42 L-46 80 L-9 76" fill="none" stroke="#6c9fc0" stroke-width="13" stroke-linecap="round" stroke-linejoin="round"/><path d="M25 42 L44 78 L5 76" fill="none" stroke="#6c9fc0" stroke-width="13" stroke-linecap="round" stroke-linejoin="round"/><circle cx="-4" cy="76" r="8" fill="#d9a27e" stroke="none" stroke-width="4"/><circle cx="4" cy="76" r="8" fill="#d9a27e" stroke="none" stroke-width="4"/></g><g transform="translate(411 113) scale(0.98) rotate(0)"><rect x="-27" y="-33" width="54" height="93" rx="24" fill="#4c3930" stroke="none" stroke-width="4"/><circle cx="0" cy="0" r="22" fill="#d9a27e" stroke="none" stroke-width="4"/><path d="M-23 -3 Q-25 -36 5 -27 Q28 -22 23 0 Q9 -10 -1 -17 Q-10 -6 -23 -3" fill="#4c3930" stroke="none" stroke-width="4" stroke-linecap="round" stroke-linejoin="round"/><circle cx="-7" cy="0" r="2.3" fill="#173c31" stroke="none" stroke-width="4"/><circle cx="7" cy="0" r="2.3" fill="#173c31" stroke="none" stroke-width="4"/><path d="M-6 10 Q0 14 6 10" fill="none" stroke="#173c31" stroke-width="2" stroke-linecap="round" stroke-linejoin="round"/><path d="M-24 30 Q0 22 24 30 L31 103 Q0 112 -31 103 Z" fill="#cf7770" stroke="none" stroke-width="4" stroke-linecap="round" stroke-linejoin="round"/><path d="M-14 105L-19 168" fill="none" stroke="#314d63" stroke-width="15" stroke-linecap="round" stroke-linejoin="round"/><path d="M14 105L23 168" fill="none" stroke="#314d63" stroke-width="15" stroke-linecap="round" stroke-linejoin="round"/><path d="M-24 170L-9 170" fill="none" stroke="#173c31" stroke-width="11" stroke-linecap="round" stroke-linejoin="round"/><path d="M18 170L35 170" fill="none" stroke="#173c31" stroke-width="11" stroke-linecap="round" stroke-linejoin="round"/><path d="M-25 42 L-46 80 L-9 76" fill="none" stroke="#cf7770" stroke-width="13" stroke-linecap="round" stroke-linejoin="round"/><path d="M25 42 L44 78 L5 76" fill="none" stroke="#cf7770" stroke-width="13" stroke-linecap="round" stroke-linejoin="round"/><circle cx="-4" cy="76" r="8" fill="#d9a27e" stroke="none" stroke-width="4"/><circle cx="4" cy="76" r="8" fill="#d9a27e" stroke="none" stroke-width="4"/></g><rect x="280" y="198" width="102" height="65" rx="9" fill="#173c31" stroke="none" stroke-width="4"/><rect x="285" y="206" width="92" height="43" rx="4" fill="#bfe0de" stroke="none" stroke-width="4"/><circle cx="331.0" cy="256" r="2.5" fill="white" stroke="none" stroke-width="4"/><circle cx="331" cy="222" r="10" fill="#e6a632" stroke="none" stroke-width="4"/><path d="M310 246 Q331 223 351 246Z" fill="#327657" stroke="none" stroke-width="4" stroke-linecap="round" stroke-linejoin="round"/><circle cx="36" cy="36" r="19" fill="#327657"/><text x="36" y="43" font-family="DejaVu Sans, sans-serif" font-size="19" fill="#fff" text-anchor="middle">1</text></svg>