<svg xmlns="http://www.w3.org/2000/svg" width="640" height="400" viewBox="0 0 640 400" role="img" aria-labelledby="title desc"><title id="title">男女两人在室外手牵手一起走。</title><desc id="desc">Original auxiliary schematic, not a textbook image. Hai người nắm tay đi cùng nhau ngoài trời.</desc><rect x="0" y="0" width="640" height="400" rx="18" fill="#fbf6e9" stroke="none" stroke-width="3"/><rect x="18" y="18" width="48" height="29" rx="8" fill="#2a7375" stroke="none" stroke-width="3"/><text x="42" y="40" fill="#fff" font-family="DejaVu Sans,sans-serif" font-size="20" text-anchor="middle">L9</text><rect x="18" y="305" width="604" height="76" rx="0" fill="#e5dac8" stroke="none" stroke-width="3"/><path d="M18 305 L622 305" fill="none" stroke="#c9bda9" stroke-width="2" stroke-linejoin="round" stroke-linecap="round"/><g transform="translate(116 144) scale(0.9) rotate(0)"><rect x="-8" y="10" width="16" height="85" rx="0" fill="#816d52" stroke="none" stroke-width="3"/><ellipse cx="0" cy="0" rx="42" ry="55" fill="#6c9c82"/></g><g transform="translate(527 143) scale(0.9) rotate(0)"><rect x="-8" y="10" width="16" height="85" rx="0" fill="#816d52" stroke="none" stroke-width="3"/><ellipse cx="0" cy="0" rx="42" ry="55" fill="#6c9c82"/></g><g transform="translate(266 151) scale(0.99) rotate(0)"><ellipse cx="0" cy="0" rx="22" ry="27" fill="#263f4e"/><ellipse cx="0" cy="4" rx="18" ry="22" fill="#e2ae87"/><path d="M-20 0 Q-30 27 -22 40 M20 0 Q30 27 22 40" fill="none" stroke="#263f4e" stroke-width="8" stroke-linejoin="round" stroke-linecap="round"/><ellipse cx="-6" cy="1" rx="2" ry="2" fill="#263f4e"/><ellipse cx="6" cy="1" rx="2" ry="2" fill="#263f4e"/><path d="M-6 13 Q0 17 6 13" fill="none" stroke="#263f4e" stroke-width="2" stroke-linejoin="round" stroke-linecap="round"/><path d="M-22 31 Q0 24 22 31 L28 94 L-28 94 Z" fill="#c4ac9d" stroke="#c4ac9d" stroke-width="2" stroke-linejoin="round" stroke-linecap="round"/><path d="M-14 94 L-18 167" fill="none" stroke="#263f4e" stroke-width="13" stroke-linejoin="round" stroke-linecap="round"/><path d="M14 94 L18 167" fill="none" stroke="#263f4e" stroke-width="13" stroke-linejoin="round" stroke-linecap="round"/><path d="M-22 41 L-28.5 80.5 L-35 100" fill="none" stroke="#c4ac9d" stroke-width="13" stroke-linejoin="round" stroke-linecap="round"/><ellipse cx="-35" cy="100" rx="8" ry="10" fill="#e2ae87"/><path d="M22 41 L46.0 74.5 L70 88" fill="none" stroke="#c4ac9d" stroke-width="13" stroke-linejoin="round" stroke-linecap="round"/><ellipse cx="70" cy="88" rx="8" ry="10" fill="#e2ae87"/></g><g transform="translate(377 137) scale(1.07) rotate(0)"><ellipse cx="0" cy="0" rx="22" ry="27" fill="#263f4e"/><ellipse cx="0" cy="4" rx="18" ry="22" fill="#e2ae87"/><ellipse cx="-6" cy="1" rx="2" ry="2" fill="#263f4e"/><ellipse cx="6" cy="1" rx="2" ry="2" fill="#263f4e"/><path d="M-6 13 Q0 17 6 13" fill="none" stroke="#263f4e" stroke-width="2" stroke-linejoin="round" stroke-linecap="round"/><path d="M-22 31 Q0 24 22 31 L28 94 L-28 94 Z" fill="#8a9fae" stroke="#8a9fae" stroke-width="2" stroke-linejoin="round" stroke-linecap="round"/><path d="M-14 94 L-18 167" fill="none" stroke="#263f4e" stroke-width="13" stroke-linejoin="round" stroke-linecap="round"/><path d="M14 94 L18 167" fill="none" stroke="#263f4e" stroke-width="13" stroke-linejoin="round" stroke-linecap="round"/><path d="M-22 41 L-28.0 78.0 L-34 95" fill="none" stroke="#8a9fae" stroke-width="13" stroke-linejoin="round" stroke-linecap="round"/><ellipse cx="-34" cy="95" rx="8" ry="10" fill="#e2ae87"/><path d="M22 41 L28.0 80.5 L34 100" fill="none" stroke="#8a9fae" stroke-width="13" stroke-linejoin="round" stroke-linecap="round"/><ellipse cx="34" cy="100" rx="8" ry="10" fill="#e2ae87"/></g><path d="M329 234 Q345 231 348 235" fill="none" stroke="#e2ae87" stroke-width="9" stroke-linejoin="round" stroke-linecap="round"/></svg>
