<svg xmlns="http://www.w3.org/2000/svg" width="640" height="400" viewBox="0 0 640 400" role="img" aria-labelledby="title desc"><title id="title">户外，一只手的手指环抱着透明水瓶的瓶身，瓶口没有靠近嘴。</title><desc id="desc">Original auxiliary schematic, not a textbook image. Ngoài trời, các ngón tay ôm quanh thân chai nước trong; miệng chai không đưa lên miệng người.</desc><rect x="0" y="0" width="640" height="400" rx="18" fill="#f5f0e2" stroke="none" stroke-width="3"/><rect x="18" y="18" width="58" height="29" rx="8" fill="#537f76" stroke="none" stroke-width="3"/><text x="47" y="40" text-anchor="middle" font-family="sans-serif" font-size="20" fill="#fff">4</text><rect x="18" y="60" width="604" height="321" rx="12" fill="#c6d8b9" stroke="none" stroke-width="3"/><path d="M18 303 Q317 281 622 306 L622 371 Q622 382 608 382 L31 382 Q18 382 18 369 Z" fill="#d2cfbc" stroke="none" stroke-width="3" stroke-linecap="round" stroke-linejoin="round"/><g transform="translate(108 143) scale(0.9)"><path d="M0 20 L0 125" fill="none" stroke="#837966" stroke-width="11" stroke-linecap="round" stroke-linejoin="round"/><ellipse cx="-22" cy="2" rx="36" ry="43" fill="#8aa181" stroke="none" stroke-width="3"/><ellipse cx="25" cy="9" rx="36" ry="39" fill="#8aa181" stroke="none" stroke-width="3"/><ellipse cx="0" cy="-29" rx="35" ry="39" fill="#8aa181" stroke="none" stroke-width="3"/></g><g transform="translate(527 126) scale(0.9)"><path d="M0 20 L0 125" fill="none" stroke="#837966" stroke-width="11" stroke-linecap="round" stroke-linejoin="round"/><ellipse cx="-22" cy="2" rx="36" ry="43" fill="#8aa181" stroke="none" stroke-width="3"/><ellipse cx="25" cy="9" rx="36" ry="39" fill="#8aa181" stroke="none" stroke-width="3"/><ellipse cx="0" cy="-29" rx="35" ry="39" fill="#8aa181" stroke="none" stroke-width="3"/></g><rect x="295" y="101" width="41" height="28" rx="6" fill="#aac3cf" stroke="#344849" stroke-width="3"/><path d="M294 128 L335 128 L339 160 Q364 174 361 211 L352 320 Q328 341 281 322 L273 209 Q271 179 291 161 Z" fill="#deeee5" stroke="#344849" stroke-width="3" stroke-linecap="round" stroke-linejoin="round"/><path d="M281 218 L354 219 L347 315 Q317 330 286 316 Z" fill="#b5d7d5" stroke="none" stroke-width="3" stroke-linecap="round" stroke-linejoin="round"/><path d="M280 196 Q319 210 355 196" fill="none" stroke="#a6c3c4" stroke-width="3" stroke-linecap="round" stroke-linejoin="round"/><path d="M280 241 Q319 255 355 241" fill="none" stroke="#a6c3c4" stroke-width="3" stroke-linecap="round" stroke-linejoin="round"/><path d="M280 285 Q319 299 355 285" fill="none" stroke="#a6c3c4" stroke-width="3" stroke-linecap="round" stroke-linejoin="round"/><path d="M568 310 L414 263 L365 231 Q367 212 349 207 L327 206 Q310 206 309 218 Q310 231 326 233 L344 233 L344 239 L300 237 Q285 237 285 248 Q285 259 300 259 L345 260 L345 265 L300 262 Q285 263 286 274 Q286 284 302 284 L348 285 L349 290 L311 287 Q296 288 297 298 Q298 308 313 308 L355 308 L354 313 L326 309 Q312 309 312 319 Q313 329 329 329 L359 328 Q386 323 407 309 L568 350 Z" fill="#dbb398" stroke="#344849" stroke-width="2" stroke-linecap="round" stroke-linejoin="round"/><path d="M322 241 L320 255 M322 267 L320 280 M330 292 L329 304 M339 314 L339 325" fill="none" stroke="#b68a76" stroke-width="1.5" stroke-linecap="round" stroke-linejoin="round"/></svg>
