<svg xmlns="http://www.w3.org/2000/svg" width="640" height="400" viewBox="0 0 640 400" role="img" aria-labelledby="title desc"><title id="title">许多细长食物从横杆一直垂到下方的盘子。</title><desc id="desc">Original auxiliary schematic, not a textbook image. Nhiều sợi thức ăn dài rủ từ thanh ngang xuống đĩa phía dưới.</desc><rect x="0" y="0" width="640" height="400" rx="18" fill="#fbf6e9" stroke="none" stroke-width="3"/><rect x="18" y="18" width="48" height="29" rx="8" fill="#2a7375" stroke="none" stroke-width="3"/><text x="42" y="40" fill="#fff" font-family="DejaVu Sans,sans-serif" font-size="20" text-anchor="middle">3</text><rect x="18" y="305" width="604" height="76" rx="0" fill="#e5dac8" stroke="none" stroke-width="3"/><path d="M18 305 L622 305" fill="none" stroke="#c9bda9" stroke-width="2" stroke-linejoin="round" stroke-linecap="round"/><ellipse cx="324" cy="285" rx="163" ry="57" fill="#cadad3"/><ellipse cx="324" cy="280" rx="149" ry="45" fill="#d7c9a3"/><rect x="157" y="108" width="332" height="20" rx="8" fill="#bd9764" stroke="#263f4e" stroke-width="3"/><path d="M206 111 Q193 150 211 204 Q231 263 198 302" fill="none" stroke="#f3dfb3" stroke-width="5" stroke-linejoin="round" stroke-linecap="round"/><path d="M215 111 Q202 150 220 204 Q240 263 207 302" fill="none" stroke="#f3dfb3" stroke-width="5" stroke-linejoin="round" stroke-linecap="round"/><path d="M224 111 Q211 150 229 204 Q249 263 216 302" fill="none" stroke="#f3dfb3" stroke-width="5" stroke-linejoin="round" stroke-linecap="round"/><path d="M233 111 Q220 150 238 204 Q258 263 225 302" fill="none" stroke="#f3dfb3" stroke-width="5" stroke-linejoin="round" stroke-linecap="round"/><path d="M242 111 Q229 150 247 204 Q267 263 234 302" fill="none" stroke="#f3dfb3" stroke-width="5" stroke-linejoin="round" stroke-linecap="round"/><path d="M251 111 Q238 150 256 204 Q276 263 243 302" fill="none" stroke="#f3dfb3" stroke-width="5" stroke-linejoin="round" stroke-linecap="round"/><path d="M260 111 Q247 150 265 204 Q285 263 252 302" fill="none" stroke="#f3dfb3" stroke-width="5" stroke-linejoin="round" stroke-linecap="round"/><path d="M269 111 Q256 150 274 204 Q294 263 261 302" fill="none" stroke="#f3dfb3" stroke-width="5" stroke-linejoin="round" stroke-linecap="round"/><path d="M278 111 Q265 150 283 204 Q303 263 270 302" fill="none" stroke="#f3dfb3" stroke-width="5" stroke-linejoin="round" stroke-linecap="round"/><path d="M287 111 Q274 150 292 204 Q312 263 279 302" fill="none" stroke="#f3dfb3" stroke-width="5" stroke-linejoin="round" stroke-linecap="round"/><path d="M296 111 Q283 150 301 204 Q321 263 288 302" fill="none" stroke="#f3dfb3" stroke-width="5" stroke-linejoin="round" stroke-linecap="round"/><path d="M305 111 Q292 150 310 204 Q330 263 297 302" fill="none" stroke="#f3dfb3" stroke-width="5" stroke-linejoin="round" stroke-linecap="round"/><path d="M314 111 Q301 150 319 204 Q339 263 306 302" fill="none" stroke="#f3dfb3" stroke-width="5" stroke-linejoin="round" stroke-linecap="round"/><path d="M323 111 Q310 150 328 204 Q348 263 315 302" fill="none" stroke="#f3dfb3" stroke-width="5" stroke-linejoin="round" stroke-linecap="round"/><path d="M332 111 Q319 150 337 204 Q357 263 324 302" fill="none" stroke="#f3dfb3" stroke-width="5" stroke-linejoin="round" stroke-linecap="round"/><path d="M341 111 Q328 150 346 204 Q366 263 333 302" fill="none" stroke="#f3dfb3" stroke-width="5" stroke-linejoin="round" stroke-linecap="round"/><path d="M350 111 Q337 150 355 204 Q375 263 342 302" fill="none" stroke="#f3dfb3" stroke-width="5" stroke-linejoin="round" stroke-linecap="round"/><path d="M359 111 Q346 150 364 204 Q384 263 351 302" fill="none" stroke="#f3dfb3" stroke-width="5" stroke-linejoin="round" stroke-linecap="round"/><path d="M368 111 Q355 150 373 204 Q393 263 360 302" fill="none" stroke="#f3dfb3" stroke-width="5" stroke-linejoin="round" stroke-linecap="round"/><path d="M377 111 Q364 150 382 204 Q402 263 369 302" fill="none" stroke="#f3dfb3" stroke-width="5" stroke-linejoin="round" stroke-linecap="round"/><path d="M386 111 Q373 150 391 204 Q411 263 378 302" fill="none" stroke="#f3dfb3" stroke-width="5" stroke-linejoin="round" stroke-linecap="round"/><path d="M395 111 Q382 150 400 204 Q420 263 387 302" fill="none" stroke="#f3dfb3" stroke-width="5" stroke-linejoin="round" stroke-linecap="round"/><path d="M404 111 Q391 150 409 204 Q429 263 396 302" fill="none" stroke="#f3dfb3" stroke-width="5" stroke-linejoin="round" stroke-linecap="round"/><path d="M413 111 Q400 150 418 204 Q438 263 405 302" fill="none" stroke="#f3dfb3" stroke-width="5" stroke-linejoin="round" stroke-linecap="round"/></svg>
