<svg xmlns="http://www.w3.org/2000/svg" width="640" height="400" viewBox="0 0 640 400" role="img" aria-labelledby="title desc"><title id="title">一家人在门内迎接两名带着礼盒的客人。</title><desc id="desc">Original auxiliary schematic, not a textbook image. Một gia đình đón hai vị khách mang hộp quà vào nhà.</desc><rect x="0" y="0" width="640" height="400" rx="18" fill="#fbf6e9" stroke="none" stroke-width="3"/><rect x="18" y="18" width="48" height="29" rx="8" fill="#2a7375" stroke="none" stroke-width="3"/><text x="42" y="40" fill="#fff" font-family="DejaVu Sans,sans-serif" font-size="20" text-anchor="middle">L5</text><rect x="18" y="305" width="604" height="76" rx="0" fill="#e5dac8" stroke="none" stroke-width="3"/><path d="M18 305 L622 305" fill="none" stroke="#c9bda9" stroke-width="2" stroke-linejoin="round" stroke-linecap="round"/><rect x="58" y="61" width="134" height="240" rx="0" fill="#a08a73" stroke="#263f4e" stroke-width="3"/><g transform="translate(180 150) scale(0.94) rotate(0)"><ellipse cx="0" cy="0" rx="22" ry="27" fill="#aaa"/><ellipse cx="0" cy="4" rx="18" ry="22" fill="#e2ae87"/><ellipse cx="-6" cy="1" rx="2" ry="2" fill="#263f4e"/><ellipse cx="6" cy="1" rx="2" ry="2" fill="#263f4e"/><path d="M-6 13 Q0 17 6 13" fill="none" stroke="#263f4e" stroke-width="2" stroke-linejoin="round" stroke-linecap="round"/><path d="M-12 7 L-8 8 M8 8 L12 7" fill="none" stroke="#a67968" stroke-width="1" stroke-linejoin="round" stroke-linecap="round"/><path d="M-22 31 Q0 24 22 31 L28 94 L-28 94 Z" fill="#a8aba0" stroke="#a8aba0" stroke-width="2" stroke-linejoin="round" stroke-linecap="round"/><path d="M-14 94 L-18 167" fill="none" stroke="#263f4e" stroke-width="13" stroke-linejoin="round" stroke-linecap="round"/><path d="M14 94 L18 167" fill="none" stroke="#263f4e" stroke-width="13" stroke-linejoin="round" stroke-linecap="round"/><path d="M-22 41 L-30.0 69.0 L-38 77" fill="none" stroke="#a8aba0" stroke-width="13" stroke-linejoin="round" stroke-linecap="round"/><ellipse cx="-38" cy="77" rx="8" ry="10" fill="#e2ae87"/><path d="M22 41 L30.0 70.0 L38 79" fill="none" stroke="#a8aba0" stroke-width="13" stroke-linejoin="round" stroke-linecap="round"/><ellipse cx="38" cy="79" rx="8" ry="10" fill="#e2ae87"/></g><g transform="translate(259 150) scale(0.94) rotate(0)"><ellipse cx="0" cy="0" rx="22" ry="27" fill="#aaa"/><ellipse cx="0" cy="4" rx="18" ry="22" fill="#e2ae87"/><path d="M-20 0 Q-30 27 -22 40 M20 0 Q30 27 22 40" fill="none" stroke="#aaa" stroke-width="8" stroke-linejoin="round" stroke-linecap="round"/><ellipse cx="-6" cy="1" rx="2" ry="2" fill="#263f4e"/><ellipse cx="6" cy="1" rx="2" ry="2" fill="#263f4e"/><path d="M-6 13 Q0 17 6 13" fill="none" stroke="#263f4e" stroke-width="2" stroke-linejoin="round" stroke-linecap="round"/><path d="M-12 7 L-8 8 M8 8 L12 7" fill="none" stroke="#a67968" stroke-width="1" stroke-linejoin="round" stroke-linecap="round"/><path d="M-22 31 Q0 24 22 31 L28 94 L-28 94 Z" fill="#a59a88" stroke="#a59a88" stroke-width="2" stroke-linejoin="round" stroke-linecap="round"/><path d="M-14 94 L-18 167" fill="none" stroke="#263f4e" stroke-width="13" stroke-linejoin="round" stroke-linecap="round"/><path d="M14 94 L18 167" fill="none" stroke="#263f4e" stroke-width="13" stroke-linejoin="round" stroke-linecap="round"/><path d="M-22 41 L-30.0 69.0 L-38 77" fill="none" stroke="#a59a88" stroke-width="13" stroke-linejoin="round" stroke-linecap="round"/><ellipse cx="-38" cy="77" rx="8" ry="10" fill="#e2ae87"/><path d="M22 41 L30.0 70.0 L38 79" fill="none" stroke="#a59a88" stroke-width="13" stroke-linejoin="round" stroke-linecap="round"/><ellipse cx="38" cy="79" rx="8" ry="10" fill="#e2ae87"/></g><g transform="translate(357 150) scale(0.94) rotate(0)"><ellipse cx="0" cy="0" rx="22" ry="27" fill="#263f4e"/><ellipse cx="0" cy="4" rx="18" ry="22" fill="#e2ae87"/><path d="M-20 0 Q-30 27 -22 40 M20 0 Q30 27 22 40" fill="none" stroke="#263f4e" stroke-width="8" stroke-linejoin="round" stroke-linecap="round"/><ellipse cx="-6" cy="1" rx="2" ry="2" fill="#263f4e"/><ellipse cx="6" cy="1" rx="2" ry="2" fill="#263f4e"/><path d="M-6 13 Q0 17 6 13" fill="none" stroke="#263f4e" stroke-width="2" stroke-linejoin="round" stroke-linecap="round"/><path d="M-22 31 Q0 24 22 31 L28 94 L-28 94 Z" fill="#bc8580" stroke="#bc8580" stroke-width="2" stroke-linejoin="round" stroke-linecap="round"/><path d="M-14 94 L-18 167" fill="none" stroke="#263f4e" stroke-width="13" stroke-linejoin="round" stroke-linecap="round"/><path d="M14 94 L18 167" fill="none" stroke="#263f4e" stroke-width="13" stroke-linejoin="round" stroke-linecap="round"/><path d="M-22 41 L-30.0 69.0 L-38 77" fill="none" stroke="#bc8580" stroke-width="13" stroke-linejoin="round" stroke-linecap="round"/><ellipse cx="-38" cy="77" rx="8" ry="10" fill="#e2ae87"/><path d="M22 41 L30.0 70.0 L38 79" fill="none" stroke="#bc8580" stroke-width="13" stroke-linejoin="round" stroke-linecap="round"/><ellipse cx="38" cy="79" rx="8" ry="10" fill="#e2ae87"/></g><g transform="translate(453 150) scale(0.94) rotate(0)"><ellipse cx="0" cy="0" rx="22" ry="27" fill="#263f4e"/><ellipse cx="0" cy="4" rx="18" ry="22" fill="#e2ae87"/><path d="M-20 0 Q-30 27 -22 40 M20 0 Q30 27 22 40" fill="none" stroke="#263f4e" stroke-width="8" stroke-linejoin="round" stroke-linecap="round"/><ellipse cx="-6" cy="1" rx="2" ry="2" fill="#263f4e"/><ellipse cx="6" cy="1" rx="2" ry="2" fill="#263f4e"/><path d="M-6 13 Q0 17 6 13" fill="none" stroke="#263f4e" stroke-width="2" stroke-linejoin="round" stroke-linecap="round"/><path d="M-22 31 Q0 24 22 31 L28 94 L-28 94 Z" fill="#2a7375" stroke="#2a7375" stroke-width="2" stroke-linejoin="round" stroke-linecap="round"/><path d="M-14 94 L-18 167" fill="none" stroke="#263f4e" stroke-width="13" stroke-linejoin="round" stroke-linecap="round"/><path d="M14 94 L18 167" fill="none" stroke="#263f4e" stroke-width="13" stroke-linejoin="round" stroke-linecap="round"/><path d="M-22 41 L-30.0 69.0 L-38 77" fill="none" stroke="#2a7375" stroke-width="13" stroke-linejoin="round" stroke-linecap="round"/><ellipse cx="-38" cy="77" rx="8" ry="10" fill="#e2ae87"/><path d="M22 41 L30.0 70.0 L38 79" fill="none" stroke="#2a7375" stroke-width="13" stroke-linejoin="round" stroke-linecap="round"/><ellipse cx="38" cy="79" rx="8" ry="10" fill="#e2ae87"/></g><g transform="translate(545 150) scale(0.94) rotate(0)"><ellipse cx="0" cy="0" rx="22" ry="27" fill="#263f4e"/><ellipse cx="0" cy="4" rx="18" ry="22" fill="#e2ae87"/><path d="M-20 0 Q-30 27 -22 40 M20 0 Q30 27 22 40" fill="none" stroke="#263f4e" stroke-width="8" stroke-linejoin="round" stroke-linecap="round"/><ellipse cx="-6" cy="1" rx="2" ry="2" fill="#263f4e"/><ellipse cx="6" cy="1" rx="2" ry="2" fill="#263f4e"/><path d="M-6 13 Q0 17 6 13" fill="none" stroke="#263f4e" stroke-width="2" stroke-linejoin="round" stroke-linecap="round"/><path d="M-22 31 Q0 24 22 31 L28 94 L-28 94 Z" fill="#b3976d" stroke="#b3976d" stroke-width="2" stroke-linejoin="round" stroke-linecap="round"/><path d="M-14 94 L-18 167" fill="none" stroke="#263f4e" stroke-width="13" stroke-linejoin="round" stroke-linecap="round"/><path d="M14 94 L18 167" fill="none" stroke="#263f4e" stroke-width="13" stroke-linejoin="round" stroke-linecap="round"/><path d="M-22 41 L-30.0 69.0 L-38 77" fill="none" stroke="#b3976d" stroke-width="13" stroke-linejoin="round" stroke-linecap="round"/><ellipse cx="-38" cy="77" rx="8" ry="10" fill="#e2ae87"/><path d="M22 41 L30.0 70.0 L38 79" fill="none" stroke="#b3976d" stroke-width="13" stroke-linejoin="round" stroke-linecap="round"/><ellipse cx="38" cy="79" rx="8" ry="10" fill="#e2ae87"/></g><rect x="386" y="277" width="58" height="55" rx="4" fill="#be6d59" stroke="#263f4e" stroke-width="3"/><rect x="410" y="277" width="8" height="55" rx="0" fill="#eac789" stroke="none" stroke-width="3"/><rect x="490" y="277" width="48" height="47" rx="4" fill="#d2ad70" stroke="#263f4e" stroke-width="3"/><rect x="510" y="277" width="8" height="47" rx="0" fill="#b45951" stroke="none" stroke-width="3"/></svg>
