<svg xmlns="http://www.w3.org/2000/svg" width="640" height="400" viewBox="0 0 640 400" role="img" aria-labelledby="title desc"><title id="title">一条有彩色横条纹和褶皱的裙子。</title><desc id="desc">Original auxiliary schematic, not a textbook image. Một chiếc váy có sọc ngang nhiều màu và nếp gấp.</desc><rect x="0" y="0" width="640" height="400" rx="18" fill="#f5f0e2" stroke="none" stroke-width="3"/><rect x="18" y="18" width="58" height="29" rx="8" fill="#537f76" stroke="none" stroke-width="3"/><text x="47" y="40" text-anchor="middle" font-family="sans-serif" font-size="20" fill="#fff">4</text><rect x="18" y="60" width="604" height="321" rx="12" fill="#d2d8ca" stroke="none" stroke-width="3"/><path d="M18 303 Q317 281 622 306 L622 371 Q622 382 608 382 L31 382 Q18 382 18 369 Z" fill="#d2cfbc" stroke="none" stroke-width="3" stroke-linecap="round" stroke-linejoin="round"/><path d="M233 104 L409 104 L497 338 Q321 374 145 338 Z" fill="#809bac" stroke="#344849" stroke-width="4" stroke-linecap="round" stroke-linejoin="round"/><rect x="233" y="96" width="176" height="28" rx="6" fill="#587780" stroke="#344849" stroke-width="3"/><path d="M220.0 154 Q321 181 422.0 154" fill="none" stroke="#bd8d99" stroke-width="19" stroke-linecap="round" stroke-linejoin="round"/><path d="M202.0 204 Q321 231 440.0 204" fill="none" stroke="#96ac80" stroke-width="19" stroke-linecap="round" stroke-linejoin="round"/><path d="M184.0 254 Q321 281 458.0 254" fill="none" stroke="#cbb779" stroke-width="19" stroke-linecap="round" stroke-linejoin="round"/><path d="M164.92000000000002 307 Q321 334 477.08 307" fill="none" stroke="#b1838d" stroke-width="19" stroke-linecap="round" stroke-linejoin="round"/><path d="M255 124 L175.79999999999998 343" fill="none" stroke="#526c79" stroke-width="2" stroke-linecap="round" stroke-linejoin="round"/><path d="M284 124 L239.6 343" fill="none" stroke="#526c79" stroke-width="2" stroke-linecap="round" stroke-linejoin="round"/><path d="M320 124 L318.8 343" fill="none" stroke="#526c79" stroke-width="2" stroke-linecap="round" stroke-linejoin="round"/><path d="M356 124 L398.0 343" fill="none" stroke="#526c79" stroke-width="2" stroke-linecap="round" stroke-linejoin="round"/><path d="M386 124 L464.0 343" fill="none" stroke="#526c79" stroke-width="2" stroke-linecap="round" stroke-linejoin="round"/></svg>
