<svg xmlns="http://www.w3.org/2000/svg" width="640" height="400" viewBox="0 0 640 400" role="img"><title>两只熊猫坐在一起，一只身前有竹子。</title><desc>Hai gấu trúc ngồi cạnh nhau, một con có tre trước người.</desc><rect width="640" height="400" rx="18" fill="#f5f0e3"/><rect x="0" y="335" width="640" height="65" rx="0" fill="#d8d4c3"/><path d="M0 335L640 335" fill="none" stroke="#c2c7bb" stroke-width="2" stroke-linecap="round" stroke-linejoin="round"/><g transform="translate(220 177) scale(1.2)"><ellipse cx="0" cy="59" rx="56" ry="65" fill="#f5f3e7" stroke="#bdc6bc" stroke-width="3"/><ellipse cx="-41" cy="60" rx="21" ry="45" fill="#35464a"/><ellipse cx="41" cy="60" rx="21" ry="45" fill="#35464a"/><ellipse cx="-36" cy="112" rx="29" ry="18" fill="#35464a"/><ellipse cx="36" cy="112" rx="29" ry="18" fill="#35464a"/><circle cx="-36" cy="-31" r="22" fill="#35464a"/><circle cx="36" cy="-31" r="22" fill="#35464a"/><ellipse cx="0" cy="0" rx="56" ry="47" fill="#fcf9ed"/><ellipse cx="-21" cy="0" rx="14" ry="19" fill="#35464a"/><ellipse cx="21" cy="0" rx="14" ry="19" fill="#35464a"/><circle cx="-19" cy="-4" r="4" fill="#fdfbf0"/><circle cx="19" cy="-4" r="4" fill="#fdfbf0"/><ellipse cx="0" cy="20" rx="11" ry="7" fill="#35464a"/><path d="M0 26L0 31M0 31Q-10 40 -17 31M0 31Q10 40 17 31" fill="none" stroke="#35464a" stroke-width="3" stroke-linecap="round" stroke-linejoin="round"/><path d="M-58 92L56 33" fill="none" stroke="#73935f" stroke-width="8" stroke-linecap="round" stroke-linejoin="round"/><path d="M-18 72L-24 46L4 58M8 58L30 66L26 42" fill="none" stroke="#73935f" stroke-width="5" stroke-linecap="round" stroke-linejoin="round"/></g><g transform="translate(440 192) scale(1.08)"><ellipse cx="0" cy="59" rx="56" ry="65" fill="#f5f3e7" stroke="#bdc6bc" stroke-width="3"/><ellipse cx="-41" cy="60" rx="21" ry="45" fill="#35464a"/><ellipse cx="41" cy="60" rx="21" ry="45" fill="#35464a"/><ellipse cx="-36" cy="112" rx="29" ry="18" fill="#35464a"/><ellipse cx="36" cy="112" rx="29" ry="18" fill="#35464a"/><circle cx="-36" cy="-31" r="22" fill="#35464a"/><circle cx="36" cy="-31" r="22" fill="#35464a"/><ellipse cx="0" cy="0" rx="56" ry="47" fill="#fcf9ed"/><ellipse cx="-21" cy="0" rx="14" ry="19" fill="#35464a"/><ellipse cx="21" cy="0" rx="14" ry="19" fill="#35464a"/><circle cx="-19" cy="-4" r="4" fill="#fdfbf0"/><circle cx="19" cy="-4" r="4" fill="#fdfbf0"/><ellipse cx="0" cy="20" rx="11" ry="7" fill="#35464a"/><path d="M0 26L0 31M0 31Q-10 40 -17 31M0 31Q10 40 17 31" fill="none" stroke="#35464a" stroke-width="3" stroke-linecap="round" stroke-linejoin="round"/></g></svg>
